<mxfile host="Electron" agent="Mozilla/5.0 (Macintosh; Intel Mac OS X 10_15_7) AppleWebKit/537.36 (KHTML, like Gecko) draw.io/24.7.17 Chrome/128.0.6613.36 Electron/32.0.1 Safari/537.36" version="24.7.17" pages="4">
  <diagram name="use case tong quat" id="53bPs-Tj5kSFK4nyHWsO">
    <mxGraphModel dx="2273" dy="934" grid="1" gridSize="10" guides="1" tooltips="1" connect="1" arrows="1" fold="1" page="1" pageScale="1" pageWidth="827" pageHeight="1169" math="0" shadow="0">
      <root>
        <mxCell id="0" />
        <mxCell id="1" parent="0" />
        <mxCell id="f5O9573PtEotkBy1hpDQ-1" value="người quỷ lý hệ thống" style="shape=umlActor;verticalLabelPosition=bottom;verticalAlign=top;html=1;outlineConnect=0;" vertex="1" parent="1">
          <mxGeometry x="-210" y="380" width="30" height="60" as="geometry" />
        </mxCell>
        <mxCell id="f5O9573PtEotkBy1hpDQ-2" value="nhân viên tư vấn" style="shape=umlActor;verticalLabelPosition=bottom;verticalAlign=top;html=1;outlineConnect=0;" vertex="1" parent="1">
          <mxGeometry x="-320" y="650" width="30" height="60" as="geometry" />
        </mxCell>
        <mxCell id="f5O9573PtEotkBy1hpDQ-3" value="khách hàng" style="shape=umlActor;verticalLabelPosition=bottom;verticalAlign=top;html=1;outlineConnect=0;" vertex="1" parent="1">
          <mxGeometry x="1010" y="330" width="30" height="60" as="geometry" />
        </mxCell>
        <mxCell id="f5O9573PtEotkBy1hpDQ-4" value="nhân viên kiểm định" style="shape=umlActor;verticalLabelPosition=bottom;verticalAlign=top;html=1;outlineConnect=0;" vertex="1" parent="1">
          <mxGeometry x="-280" y="150" width="30" height="60" as="geometry" />
        </mxCell>
        <mxCell id="f5O9573PtEotkBy1hpDQ-5" value="Đăng nhập" style="ellipse;whiteSpace=wrap;html=1;" vertex="1" parent="1">
          <mxGeometry x="230" y="20" width="120" height="50" as="geometry" />
        </mxCell>
        <mxCell id="f5O9573PtEotkBy1hpDQ-6" value="Đăng xuất" style="ellipse;whiteSpace=wrap;html=1;" vertex="1" parent="1">
          <mxGeometry x="580" y="700" width="120" height="50" as="geometry" />
        </mxCell>
        <mxCell id="f5O9573PtEotkBy1hpDQ-7" value="sao lưu CSDL" style="ellipse;whiteSpace=wrap;html=1;" vertex="1" parent="1">
          <mxGeometry x="-20" y="320" width="120" height="50" as="geometry" />
        </mxCell>
        <mxCell id="f5O9573PtEotkBy1hpDQ-8" value="khôi phục CSDL" style="ellipse;whiteSpace=wrap;html=1;" vertex="1" parent="1">
          <mxGeometry x="50" y="380" width="120" height="50" as="geometry" />
        </mxCell>
        <mxCell id="f5O9573PtEotkBy1hpDQ-9" value="tư vấn khác hàng" style="ellipse;whiteSpace=wrap;html=1;" vertex="1" parent="1">
          <mxGeometry x="-30" y="590" width="120" height="50" as="geometry" />
        </mxCell>
        <mxCell id="f5O9573PtEotkBy1hpDQ-10" value="thực hiện đánh giá&amp;nbsp;&lt;span style=&quot;color: rgba(0, 0, 0, 0); font-family: monospace; font-size: 0px; text-align: start; text-wrap: nowrap;&quot;&gt;%3CmxGraphModel%3E%3Croot%3E%3CmxCell%20id%3D%220%22%2F%3E%3CmxCell%20id%3D%221%22%20parent%3D%220%22%2F%3E%3CmxCell%20id%3D%222%22%20value%3D%22%C4%90%C4%83ng%20nh%E1%BA%ADp%22%20style%3D%22ellipse%3BwhiteSpace%3Dwrap%3Bhtml%3D1%3B%22%20vertex%3D%221%22%20parent%3D%221%22%3E%3CmxGeometry%20x%3D%22330%22%20y%3D%22300%22%20width%3D%22120%22%20height%3D%2250%22%20as%3D%22geometry%22%2F%3E%3C%2FmxCell%3E%3C%2Froot%3E%3C%2FmxGraphModel%3E&lt;/span&gt;&lt;span style=&quot;color: rgba(0, 0, 0, 0); font-family: monospace; font-size: 0px; text-align: start; text-wrap: nowrap;&quot;&gt;%3CmxGraphModel%3E%3Croot%3E%3CmxCell%20id%3D%220%22%2F%3E%3CmxCell%20id%3D%221%22%20parent%3D%220%22%2F%3E%3CmxCell%20id%3D%222%22%20value%3D%22%C4%90%C4%83ng%20nh%E1%BA%ADp%22%20style%3D%22ellipse%3BwhiteSpace%3Dwrap%3Bhtml%3D1%3B%22%20vertex%3D%221%22%20parent%3D%221%22%3E%3CmxGeometry%20x%3D%22330%22%20y%3D%22300%22%20width%3D%22120%22%20height%3D%2250%22%20as%3D%22geometry%22%2F%3E%3C%2FmxCell%3E%3C%2Froot%3E%3C%2FmxGraphModel%3E&lt;/span&gt;" style="ellipse;whiteSpace=wrap;html=1;" vertex="1" parent="1">
          <mxGeometry x="-90" y="110" width="120" height="50" as="geometry" />
        </mxCell>
        <mxCell id="f5O9573PtEotkBy1hpDQ-11" value="gửi yêu cầu" style="ellipse;whiteSpace=wrap;html=1;" vertex="1" parent="1">
          <mxGeometry x="730" y="220" width="120" height="50" as="geometry" />
        </mxCell>
        <mxCell id="f5O9573PtEotkBy1hpDQ-12" value="quản lý người dùng" style="ellipse;whiteSpace=wrap;html=1;" vertex="1" parent="1">
          <mxGeometry x="120" y="430" width="120" height="50" as="geometry" />
        </mxCell>
        <mxCell id="f5O9573PtEotkBy1hpDQ-13" value="xuất báo cáo" style="ellipse;whiteSpace=wrap;html=1;" vertex="1" parent="1">
          <mxGeometry x="280" y="550" width="120" height="50" as="geometry" />
        </mxCell>
        <mxCell id="f5O9573PtEotkBy1hpDQ-14" value="" style="endArrow=none;html=1;rounded=0;entryX=0;entryY=0.5;entryDx=0;entryDy=0;" edge="1" parent="1" target="f5O9573PtEotkBy1hpDQ-5">
          <mxGeometry width="50" height="50" relative="1" as="geometry">
            <mxPoint x="-170" y="360" as="sourcePoint" />
            <mxPoint x="420" y="310" as="targetPoint" />
            <Array as="points">
              <mxPoint x="-110" y="60" />
            </Array>
          </mxGeometry>
        </mxCell>
        <mxCell id="f5O9573PtEotkBy1hpDQ-15" value="" style="endArrow=none;html=1;rounded=0;entryX=0;entryY=0.5;entryDx=0;entryDy=0;" edge="1" parent="1" target="f5O9573PtEotkBy1hpDQ-7">
          <mxGeometry width="50" height="50" relative="1" as="geometry">
            <mxPoint x="-160" y="390" as="sourcePoint" />
            <mxPoint x="420" y="310" as="targetPoint" />
          </mxGeometry>
        </mxCell>
        <mxCell id="f5O9573PtEotkBy1hpDQ-16" value="" style="endArrow=none;html=1;rounded=0;entryX=0;entryY=0.5;entryDx=0;entryDy=0;" edge="1" parent="1" target="f5O9573PtEotkBy1hpDQ-8">
          <mxGeometry width="50" height="50" relative="1" as="geometry">
            <mxPoint x="-150" y="410" as="sourcePoint" />
            <mxPoint x="160" y="205" as="targetPoint" />
          </mxGeometry>
        </mxCell>
        <mxCell id="f5O9573PtEotkBy1hpDQ-17" value="" style="endArrow=none;html=1;rounded=0;entryX=0;entryY=0.5;entryDx=0;entryDy=0;" edge="1" parent="1" target="f5O9573PtEotkBy1hpDQ-12">
          <mxGeometry width="50" height="50" relative="1" as="geometry">
            <mxPoint x="-140" y="420" as="sourcePoint" />
            <mxPoint x="170" y="215" as="targetPoint" />
          </mxGeometry>
        </mxCell>
        <mxCell id="f5O9573PtEotkBy1hpDQ-18" value="" style="endArrow=none;html=1;rounded=0;entryX=0;entryY=0.5;entryDx=0;entryDy=0;" edge="1" parent="1" target="f5O9573PtEotkBy1hpDQ-13">
          <mxGeometry width="50" height="50" relative="1" as="geometry">
            <mxPoint x="-140" y="430" as="sourcePoint" />
            <mxPoint x="180" y="225" as="targetPoint" />
            <Array as="points">
              <mxPoint x="-60" y="530" />
            </Array>
          </mxGeometry>
        </mxCell>
        <mxCell id="f5O9573PtEotkBy1hpDQ-19" value="" style="endArrow=none;html=1;rounded=0;entryX=1;entryY=0.5;entryDx=0;entryDy=0;" edge="1" parent="1" target="f5O9573PtEotkBy1hpDQ-11">
          <mxGeometry width="50" height="50" relative="1" as="geometry">
            <mxPoint x="960" y="350" as="sourcePoint" />
            <mxPoint x="700" y="310" as="targetPoint" />
          </mxGeometry>
        </mxCell>
        <mxCell id="f5O9573PtEotkBy1hpDQ-20" value="" style="endArrow=none;html=1;rounded=0;entryX=1;entryY=0.5;entryDx=0;entryDy=0;" edge="1" parent="1" target="f5O9573PtEotkBy1hpDQ-6">
          <mxGeometry width="50" height="50" relative="1" as="geometry">
            <mxPoint x="990" y="380" as="sourcePoint" />
            <mxPoint x="330" y="652.3529411764706" as="targetPoint" />
          </mxGeometry>
        </mxCell>
        <mxCell id="f5O9573PtEotkBy1hpDQ-21" value="" style="endArrow=none;html=1;rounded=0;entryX=1;entryY=0.5;entryDx=0;entryDy=0;" edge="1" parent="1" target="f5O9573PtEotkBy1hpDQ-5">
          <mxGeometry width="50" height="50" relative="1" as="geometry">
            <mxPoint x="990" y="340" as="sourcePoint" />
            <mxPoint x="670" y="365" as="targetPoint" />
            <Array as="points">
              <mxPoint x="840" y="150" />
            </Array>
          </mxGeometry>
        </mxCell>
        <mxCell id="f5O9573PtEotkBy1hpDQ-22" value="" style="endArrow=block;html=1;rounded=0;endFill=0;" edge="1" parent="1">
          <mxGeometry width="50" height="50" relative="1" as="geometry">
            <mxPoint x="-280" y="620" as="sourcePoint" />
            <mxPoint x="-230" y="480" as="targetPoint" />
          </mxGeometry>
        </mxCell>
        <mxCell id="f5O9573PtEotkBy1hpDQ-23" value="" style="endArrow=block;html=1;rounded=0;endFill=0;" edge="1" parent="1">
          <mxGeometry width="50" height="50" relative="1" as="geometry">
            <mxPoint x="-260" y="250" as="sourcePoint" />
            <mxPoint x="-210" y="360" as="targetPoint" />
          </mxGeometry>
        </mxCell>
        <mxCell id="f5O9573PtEotkBy1hpDQ-24" value="" style="endArrow=open;dashed=1;html=1;strokeWidth=2;rounded=0;endFill=0;exitX=0.5;exitY=0;exitDx=0;exitDy=0;" edge="1" parent="1" source="f5O9573PtEotkBy1hpDQ-7">
          <mxGeometry width="50" height="50" relative="1" as="geometry">
            <mxPoint x="210" y="330" as="sourcePoint" />
            <mxPoint x="260" y="70" as="targetPoint" />
          </mxGeometry>
        </mxCell>
        <mxCell id="f5O9573PtEotkBy1hpDQ-25" value="&amp;lt;&amp;lt;include&amp;gt;&amp;gt;" style="edgeLabel;html=1;align=center;verticalAlign=middle;resizable=0;points=[];" vertex="1" connectable="0" parent="f5O9573PtEotkBy1hpDQ-24">
          <mxGeometry x="-0.5018" relative="1" as="geometry">
            <mxPoint y="1" as="offset" />
          </mxGeometry>
        </mxCell>
        <mxCell id="f5O9573PtEotkBy1hpDQ-26" value="" style="endArrow=open;dashed=1;html=1;strokeWidth=2;rounded=0;endFill=0;exitX=0.639;exitY=0.005;exitDx=0;exitDy=0;exitPerimeter=0;" edge="1" parent="1" source="f5O9573PtEotkBy1hpDQ-8">
          <mxGeometry width="50" height="50" relative="1" as="geometry">
            <mxPoint x="170" y="220" as="sourcePoint" />
            <mxPoint x="270" y="90" as="targetPoint" />
          </mxGeometry>
        </mxCell>
        <mxCell id="f5O9573PtEotkBy1hpDQ-27" value="&amp;lt;&amp;lt;include&amp;gt;&amp;gt;" style="edgeLabel;html=1;align=center;verticalAlign=middle;resizable=0;points=[];" vertex="1" connectable="0" parent="f5O9573PtEotkBy1hpDQ-26">
          <mxGeometry x="0.061" y="-1" relative="1" as="geometry">
            <mxPoint x="1" y="-1" as="offset" />
          </mxGeometry>
        </mxCell>
        <mxCell id="f5O9573PtEotkBy1hpDQ-28" value="" style="endArrow=open;dashed=1;html=1;strokeWidth=2;rounded=0;endFill=0;exitX=0.714;exitY=-0.031;exitDx=0;exitDy=0;exitPerimeter=0;" edge="1" parent="1" source="f5O9573PtEotkBy1hpDQ-13">
          <mxGeometry width="50" height="50" relative="1" as="geometry">
            <mxPoint x="314" y="440" as="sourcePoint" />
            <mxPoint x="310" y="90" as="targetPoint" />
          </mxGeometry>
        </mxCell>
        <mxCell id="f5O9573PtEotkBy1hpDQ-29" value="&amp;lt;&amp;lt;include&amp;gt;&amp;gt;" style="edgeLabel;html=1;align=center;verticalAlign=middle;resizable=0;points=[];" vertex="1" connectable="0" parent="f5O9573PtEotkBy1hpDQ-28">
          <mxGeometry x="0.0285" y="-4" relative="1" as="geometry">
            <mxPoint as="offset" />
          </mxGeometry>
        </mxCell>
        <mxCell id="f5O9573PtEotkBy1hpDQ-30" value="" style="endArrow=open;dashed=1;html=1;strokeWidth=2;rounded=0;endFill=0;exitX=1;exitY=0;exitDx=0;exitDy=0;" edge="1" parent="1" source="f5O9573PtEotkBy1hpDQ-12">
          <mxGeometry width="50" height="50" relative="1" as="geometry">
            <mxPoint x="200" y="250" as="sourcePoint" />
            <mxPoint x="290" y="90" as="targetPoint" />
          </mxGeometry>
        </mxCell>
        <mxCell id="f5O9573PtEotkBy1hpDQ-31" value="&amp;lt;&amp;lt;include&amp;gt;&amp;gt;" style="edgeLabel;html=1;align=center;verticalAlign=middle;resizable=0;points=[];" vertex="1" connectable="0" parent="f5O9573PtEotkBy1hpDQ-30">
          <mxGeometry x="0.0115" y="-3" relative="1" as="geometry">
            <mxPoint y="1" as="offset" />
          </mxGeometry>
        </mxCell>
        <mxCell id="f5O9573PtEotkBy1hpDQ-32" value="quên mật khẩu" style="ellipse;whiteSpace=wrap;html=1;" vertex="1" parent="1">
          <mxGeometry x="660" y="320" width="120" height="50" as="geometry" />
        </mxCell>
        <mxCell id="f5O9573PtEotkBy1hpDQ-33" value="" style="endArrow=none;html=1;rounded=0;entryX=1;entryY=0.5;entryDx=0;entryDy=0;" edge="1" parent="1" target="f5O9573PtEotkBy1hpDQ-32">
          <mxGeometry width="50" height="50" relative="1" as="geometry">
            <mxPoint x="970" y="360" as="sourcePoint" />
            <mxPoint x="710" y="320" as="targetPoint" />
          </mxGeometry>
        </mxCell>
        <mxCell id="f5O9573PtEotkBy1hpDQ-34" value="" style="endArrow=none;html=1;rounded=0;" edge="1" parent="1">
          <mxGeometry width="50" height="50" relative="1" as="geometry">
            <mxPoint x="-265" y="680" as="sourcePoint" />
            <mxPoint x="-30" y="620" as="targetPoint" />
          </mxGeometry>
        </mxCell>
        <mxCell id="f5O9573PtEotkBy1hpDQ-35" value="" style="endArrow=open;dashed=1;html=1;strokeWidth=2;rounded=0;endFill=0;exitX=0;exitY=0.5;exitDx=0;exitDy=0;entryX=1;entryY=1;entryDx=0;entryDy=0;" edge="1" parent="1" source="f5O9573PtEotkBy1hpDQ-11" target="f5O9573PtEotkBy1hpDQ-5">
          <mxGeometry width="50" height="50" relative="1" as="geometry">
            <mxPoint x="326" y="458" as="sourcePoint" />
            <mxPoint x="320" y="100" as="targetPoint" />
          </mxGeometry>
        </mxCell>
        <mxCell id="f5O9573PtEotkBy1hpDQ-36" value="&amp;lt;&amp;lt;include&amp;gt;&amp;gt;" style="edgeLabel;html=1;align=center;verticalAlign=middle;resizable=0;points=[];" vertex="1" connectable="0" parent="f5O9573PtEotkBy1hpDQ-35">
          <mxGeometry x="-0.0205" y="7" relative="1" as="geometry">
            <mxPoint x="1" as="offset" />
          </mxGeometry>
        </mxCell>
        <mxCell id="f5O9573PtEotkBy1hpDQ-37" value="" style="endArrow=open;dashed=1;html=1;strokeWidth=2;rounded=0;endFill=0;exitX=0;exitY=0.5;exitDx=0;exitDy=0;entryX=0.75;entryY=1;entryDx=0;entryDy=0;entryPerimeter=0;" edge="1" parent="1" source="f5O9573PtEotkBy1hpDQ-32" target="f5O9573PtEotkBy1hpDQ-5">
          <mxGeometry width="50" height="50" relative="1" as="geometry">
            <mxPoint x="336" y="468" as="sourcePoint" />
            <mxPoint x="330" y="110" as="targetPoint" />
          </mxGeometry>
        </mxCell>
        <mxCell id="f5O9573PtEotkBy1hpDQ-38" value="&amp;lt;&amp;lt;include&amp;gt;&amp;gt;" style="edgeLabel;html=1;align=center;verticalAlign=middle;resizable=0;points=[];" vertex="1" connectable="0" parent="f5O9573PtEotkBy1hpDQ-37">
          <mxGeometry x="-0.1093" y="-1" relative="1" as="geometry">
            <mxPoint as="offset" />
          </mxGeometry>
        </mxCell>
        <mxCell id="f5O9573PtEotkBy1hpDQ-39" value="tra cứu các lần kiểm định" style="ellipse;whiteSpace=wrap;html=1;" vertex="1" parent="1">
          <mxGeometry x="620" y="440" width="120" height="50" as="geometry" />
        </mxCell>
        <mxCell id="f5O9573PtEotkBy1hpDQ-40" value="" style="endArrow=open;dashed=1;html=1;strokeWidth=2;rounded=0;endFill=0;exitX=1;exitY=0.5;exitDx=0;exitDy=0;" edge="1" parent="1" source="f5O9573PtEotkBy1hpDQ-9">
          <mxGeometry width="50" height="50" relative="1" as="geometry">
            <mxPoint x="326" y="458" as="sourcePoint" />
            <mxPoint x="320" y="100" as="targetPoint" />
            <Array as="points">
              <mxPoint x="420" y="620" />
              <mxPoint x="400" y="360" />
            </Array>
          </mxGeometry>
        </mxCell>
        <mxCell id="f5O9573PtEotkBy1hpDQ-41" value="&amp;lt;&amp;lt;include&amp;gt;&amp;gt;" style="edgeLabel;html=1;align=center;verticalAlign=middle;resizable=0;points=[];" vertex="1" connectable="0" parent="f5O9573PtEotkBy1hpDQ-40">
          <mxGeometry x="0.6634" y="-3" relative="1" as="geometry">
            <mxPoint as="offset" />
          </mxGeometry>
        </mxCell>
        <mxCell id="f5O9573PtEotkBy1hpDQ-42" value="" style="endArrow=open;dashed=1;html=1;strokeWidth=2;rounded=0;endFill=0;exitX=0.95;exitY=0.3;exitDx=0;exitDy=0;entryX=0.075;entryY=0.82;entryDx=0;entryDy=0;entryPerimeter=0;exitPerimeter=0;" edge="1" parent="1" source="f5O9573PtEotkBy1hpDQ-10" target="f5O9573PtEotkBy1hpDQ-5">
          <mxGeometry width="50" height="50" relative="1" as="geometry">
            <mxPoint x="336" y="468" as="sourcePoint" />
            <mxPoint x="330" y="110" as="targetPoint" />
          </mxGeometry>
        </mxCell>
        <mxCell id="f5O9573PtEotkBy1hpDQ-43" value="&amp;lt;&amp;lt;include&amp;gt;&amp;gt;" style="edgeLabel;html=1;align=center;verticalAlign=middle;resizable=0;points=[];" vertex="1" connectable="0" parent="f5O9573PtEotkBy1hpDQ-42">
          <mxGeometry x="-0.317" y="-4" relative="1" as="geometry">
            <mxPoint as="offset" />
          </mxGeometry>
        </mxCell>
        <mxCell id="f5O9573PtEotkBy1hpDQ-44" value="" style="endArrow=none;html=1;rounded=0;" edge="1" parent="1" target="f5O9573PtEotkBy1hpDQ-10">
          <mxGeometry width="50" height="50" relative="1" as="geometry">
            <mxPoint x="-230" y="190" as="sourcePoint" />
            <mxPoint x="390" y="440" as="targetPoint" />
          </mxGeometry>
        </mxCell>
        <mxCell id="f5O9573PtEotkBy1hpDQ-45" value="liên hệ khách hàng" style="ellipse;whiteSpace=wrap;html=1;" vertex="1" parent="1">
          <mxGeometry x="210" y="660" width="120" height="50" as="geometry" />
        </mxCell>
        <mxCell id="f5O9573PtEotkBy1hpDQ-46" value="" style="endArrow=open;dashed=1;html=1;strokeWidth=2;rounded=0;endFill=0;entryX=1;entryY=1;entryDx=0;entryDy=0;exitX=0;exitY=0.5;exitDx=0;exitDy=0;" edge="1" parent="1" source="f5O9573PtEotkBy1hpDQ-45" target="f5O9573PtEotkBy1hpDQ-9">
          <mxGeometry width="50" height="50" relative="1" as="geometry">
            <mxPoint x="150" y="310" as="sourcePoint" />
            <mxPoint x="270" y="80" as="targetPoint" />
          </mxGeometry>
        </mxCell>
        <mxCell id="f5O9573PtEotkBy1hpDQ-47" value="&amp;lt;&amp;lt;extend&amp;gt;&amp;gt;" style="edgeLabel;html=1;align=center;verticalAlign=middle;resizable=0;points=[];" vertex="1" connectable="0" parent="f5O9573PtEotkBy1hpDQ-46">
          <mxGeometry x="-0.1813" y="-2" relative="1" as="geometry">
            <mxPoint as="offset" />
          </mxGeometry>
        </mxCell>
        <mxCell id="f5O9573PtEotkBy1hpDQ-48" value="xác nhận yêu cầu" style="ellipse;whiteSpace=wrap;html=1;" vertex="1" parent="1">
          <mxGeometry x="-130" y="260" width="120" height="50" as="geometry" />
        </mxCell>
        <mxCell id="f5O9573PtEotkBy1hpDQ-49" value="" style="endArrow=none;html=1;rounded=0;entryX=0;entryY=1;entryDx=0;entryDy=0;" edge="1" parent="1" target="f5O9573PtEotkBy1hpDQ-48">
          <mxGeometry width="50" height="50" relative="1" as="geometry">
            <mxPoint x="-160" y="380" as="sourcePoint" />
            <mxPoint x="300" y="440" as="targetPoint" />
          </mxGeometry>
        </mxCell>
        <mxCell id="f5O9573PtEotkBy1hpDQ-50" value="" style="endArrow=open;dashed=1;html=1;strokeWidth=2;rounded=0;endFill=0;" edge="1" parent="1" source="f5O9573PtEotkBy1hpDQ-48">
          <mxGeometry width="50" height="50" relative="1" as="geometry">
            <mxPoint x="150" y="310" as="sourcePoint" />
            <mxPoint x="250" y="80" as="targetPoint" />
          </mxGeometry>
        </mxCell>
        <mxCell id="f5O9573PtEotkBy1hpDQ-51" value="&lt;span style=&quot;color: rgba(0, 0, 0, 0); font-family: monospace; font-size: 0px; text-align: start; background-color: rgb(251, 251, 251);&quot;&gt;%3CmxGraphModel%3E%3Croot%3E%3CmxCell%20id%3D%220%22%2F%3E%3CmxCell%20id%3D%221%22%20parent%3D%220%22%2F%3E%3CmxCell%20id%3D%222%22%20value%3D%22%26amp%3Blt%3B%26amp%3Blt%3Binclude%26amp%3Bgt%3B%26amp%3Bgt%3B%22%20style%3D%22edgeLabel%3Bhtml%3D1%3Balign%3Dcenter%3BverticalAlign%3Dmiddle%3Bresizable%3D0%3Bpoints%3D%5B%5D%3B%22%20vertex%3D%221%22%20connectable%3D%220%22%20parent%3D%221%22%3E%3CmxGeometry%20x%3D%2298.3309872926634%22%20y%3D%22107.04702568442781%22%20as%3D%22geometry%22%2F%3E%3C%2FmxCell%3E%3C%2Froot%3E%3C%2FmxGraphModel%3E&lt;/span&gt;" style="edgeLabel;html=1;align=center;verticalAlign=middle;resizable=0;points=[];" vertex="1" connectable="0" parent="f5O9573PtEotkBy1hpDQ-50">
          <mxGeometry x="0.215" y="-2" relative="1" as="geometry">
            <mxPoint as="offset" />
          </mxGeometry>
        </mxCell>
        <mxCell id="f5O9573PtEotkBy1hpDQ-52" value="&amp;lt;&amp;lt;include&amp;gt;&amp;gt;" style="edgeLabel;html=1;align=center;verticalAlign=middle;resizable=0;points=[];" vertex="1" connectable="0" parent="f5O9573PtEotkBy1hpDQ-50">
          <mxGeometry x="-0.211" y="-1" relative="1" as="geometry">
            <mxPoint as="offset" />
          </mxGeometry>
        </mxCell>
        <mxCell id="f5O9573PtEotkBy1hpDQ-53" value="" style="endArrow=none;html=1;rounded=0;entryX=1;entryY=0.5;entryDx=0;entryDy=0;" edge="1" parent="1" target="f5O9573PtEotkBy1hpDQ-39">
          <mxGeometry width="50" height="50" relative="1" as="geometry">
            <mxPoint x="980" y="380" as="sourcePoint" />
            <mxPoint x="640" y="385" as="targetPoint" />
          </mxGeometry>
        </mxCell>
        <mxCell id="f5O9573PtEotkBy1hpDQ-54" value="" style="endArrow=open;dashed=1;html=1;strokeWidth=2;rounded=0;endFill=0;exitX=0;exitY=0.5;exitDx=0;exitDy=0;" edge="1" parent="1" source="f5O9573PtEotkBy1hpDQ-39">
          <mxGeometry width="50" height="50" relative="1" as="geometry">
            <mxPoint x="530" y="325" as="sourcePoint" />
            <mxPoint x="320" y="80" as="targetPoint" />
          </mxGeometry>
        </mxCell>
        <mxCell id="f5O9573PtEotkBy1hpDQ-55" value="&amp;lt;&amp;lt;include&amp;gt;&amp;gt;" style="edgeLabel;html=1;align=center;verticalAlign=middle;resizable=0;points=[];" vertex="1" connectable="0" parent="f5O9573PtEotkBy1hpDQ-54">
          <mxGeometry x="0.237" y="-3" relative="1" as="geometry">
            <mxPoint as="offset" />
          </mxGeometry>
        </mxCell>
        <mxCell id="f5O9573PtEotkBy1hpDQ-56" value="" style="endArrow=none;html=1;rounded=0;exitX=0;exitY=0.5;exitDx=0;exitDy=0;" edge="1" parent="1" source="f5O9573PtEotkBy1hpDQ-6">
          <mxGeometry width="50" height="50" relative="1" as="geometry">
            <mxPoint x="1000" y="390" as="sourcePoint" />
            <mxPoint x="-180" y="470" as="targetPoint" />
            <Array as="points">
              <mxPoint x="-150" y="730" />
            </Array>
          </mxGeometry>
        </mxCell>
        <mxCell id="f5O9573PtEotkBy1hpDQ-57" value="im giấy chứng nhận" style="ellipse;whiteSpace=wrap;html=1;" vertex="1" parent="1">
          <mxGeometry x="500" y="550" width="120" height="50" as="geometry" />
        </mxCell>
        <mxCell id="f5O9573PtEotkBy1hpDQ-58" value="" style="endArrow=open;dashed=1;html=1;strokeWidth=2;rounded=0;endFill=0;entryX=1;entryY=1;entryDx=0;entryDy=0;exitX=0;exitY=0.5;exitDx=0;exitDy=0;" edge="1" parent="1" source="f5O9573PtEotkBy1hpDQ-57">
          <mxGeometry width="50" height="50" relative="1" as="geometry">
            <mxPoint x="508" y="621" as="sourcePoint" />
            <mxPoint x="370" y="569" as="targetPoint" />
          </mxGeometry>
        </mxCell>
        <mxCell id="f5O9573PtEotkBy1hpDQ-59" value="&amp;lt;&amp;lt;extend&amp;gt;&amp;gt;" style="edgeLabel;html=1;align=center;verticalAlign=middle;resizable=0;points=[];" vertex="1" connectable="0" parent="f5O9573PtEotkBy1hpDQ-58">
          <mxGeometry x="-0.1813" y="-2" relative="1" as="geometry">
            <mxPoint x="10" y="7" as="offset" />
          </mxGeometry>
        </mxCell>
        <mxCell id="f5O9573PtEotkBy1hpDQ-60" value="quản lý dịch vụ" style="ellipse;whiteSpace=wrap;html=1;" vertex="1" parent="1">
          <mxGeometry x="170" y="500" width="120" height="50" as="geometry" />
        </mxCell>
        <mxCell id="f5O9573PtEotkBy1hpDQ-61" value="" style="endArrow=none;html=1;rounded=0;entryX=0;entryY=0.5;entryDx=0;entryDy=0;" edge="1" parent="1" target="f5O9573PtEotkBy1hpDQ-60">
          <mxGeometry width="50" height="50" relative="1" as="geometry">
            <mxPoint x="-130" y="440" as="sourcePoint" />
            <mxPoint x="290" y="470" as="targetPoint" />
          </mxGeometry>
        </mxCell>
        <mxCell id="f5O9573PtEotkBy1hpDQ-62" value="" style="endArrow=open;dashed=1;html=1;strokeWidth=2;rounded=0;endFill=0;exitX=0.796;exitY=0.082;exitDx=0;exitDy=0;exitPerimeter=0;" edge="1" parent="1" source="f5O9573PtEotkBy1hpDQ-60">
          <mxGeometry width="50" height="50" relative="1" as="geometry">
            <mxPoint x="376" y="558" as="sourcePoint" />
            <mxPoint x="320" y="100" as="targetPoint" />
          </mxGeometry>
        </mxCell>
        <mxCell id="f5O9573PtEotkBy1hpDQ-63" value="&amp;lt;&amp;lt;include&amp;gt;&amp;gt;" style="edgeLabel;html=1;align=center;verticalAlign=middle;resizable=0;points=[];" vertex="1" connectable="0" parent="f5O9573PtEotkBy1hpDQ-62">
          <mxGeometry x="0.0285" y="-4" relative="1" as="geometry">
            <mxPoint as="offset" />
          </mxGeometry>
        </mxCell>
      </root>
    </mxGraphModel>
  </diagram>
  <diagram id="MuZ1EdwapbXiGxudljui" name="Trang-2">
    <mxGraphModel dx="989" dy="639" grid="1" gridSize="10" guides="1" tooltips="1" connect="1" arrows="1" fold="1" page="1" pageScale="1" pageWidth="827" pageHeight="1169" math="0" shadow="0">
      <root>
        <mxCell id="0" />
        <mxCell id="1" parent="0" />
        <mxCell id="-pCjzga6gceC2OjpBCE2-2" value="người quả lý hệ thống" style="shape=umlActor;verticalLabelPosition=bottom;verticalAlign=top;html=1;outlineConnect=0;" vertex="1" parent="1">
          <mxGeometry x="190" y="310" width="30" height="60" as="geometry" />
        </mxCell>
        <mxCell id="-pCjzga6gceC2OjpBCE2-3" value="sao lưu CSDL" style="ellipse;whiteSpace=wrap;html=1;" vertex="1" parent="1">
          <mxGeometry x="450" y="480" width="120" height="50" as="geometry" />
        </mxCell>
        <mxCell id="-pCjzga6gceC2OjpBCE2-4" value="khôi phục CSDL&lt;span style=&quot;color: rgba(0, 0, 0, 0); font-family: monospace; font-size: 0px; text-align: start; text-wrap: nowrap;&quot;&gt;%3CmxGraphModel%3E%3Croot%3E%3CmxCell%20id%3D%220%22%2F%3E%3CmxCell%20id%3D%221%22%20parent%3D%220%22%2F%3E%3CmxCell%20id%3D%222%22%20value%3D%22sao%20l%C6%B0u%20CSDL%22%20style%3D%22ellipse%3BwhiteSpace%3Dwrap%3Bhtml%3D1%3B%22%20vertex%3D%221%22%20parent%3D%221%22%3E%3CmxGeometry%20x%3D%22400%22%20y%3D%22340%22%20width%3D%22120%22%20height%3D%2250%22%20as%3D%22geometry%22%2F%3E%3C%2FmxCell%3E%3C%2Froot%3E%3C%2FmxGraphModel%3E&lt;/span&gt;" style="ellipse;whiteSpace=wrap;html=1;" vertex="1" parent="1">
          <mxGeometry x="420" y="120" width="120" height="50" as="geometry" />
        </mxCell>
        <mxCell id="-pCjzga6gceC2OjpBCE2-5" value="quản lý người dùng" style="ellipse;whiteSpace=wrap;html=1;" vertex="1" parent="1">
          <mxGeometry x="650" y="480" width="120" height="50" as="geometry" />
        </mxCell>
        <mxCell id="-pCjzga6gceC2OjpBCE2-6" value="quản lý dịch vụ" style="ellipse;whiteSpace=wrap;html=1;" vertex="1" parent="1">
          <mxGeometry x="270" y="520" width="120" height="50" as="geometry" />
        </mxCell>
        <mxCell id="-pCjzga6gceC2OjpBCE2-7" value="xuất báo cáo&amp;nbsp;" style="ellipse;whiteSpace=wrap;html=1;" vertex="1" parent="1">
          <mxGeometry x="620" y="310" width="120" height="50" as="geometry" />
        </mxCell>
        <mxCell id="-pCjzga6gceC2OjpBCE2-8" value="xác nhận yêu cầu" style="ellipse;whiteSpace=wrap;html=1;" vertex="1" parent="1">
          <mxGeometry x="620" y="190" width="120" height="50" as="geometry" />
        </mxCell>
        <mxCell id="46Dm5urxPdZSWB7u-8lu-1" value="đăng nhập" style="ellipse;whiteSpace=wrap;html=1;" vertex="1" parent="1">
          <mxGeometry x="340" y="280" width="120" height="50" as="geometry" />
        </mxCell>
        <mxCell id="46Dm5urxPdZSWB7u-8lu-2" value="đăng xuất" style="ellipse;whiteSpace=wrap;html=1;" vertex="1" parent="1">
          <mxGeometry x="860" y="380" width="120" height="50" as="geometry" />
        </mxCell>
        <mxCell id="46Dm5urxPdZSWB7u-8lu-4" value="" style="endArrow=none;html=1;rounded=0;entryX=0;entryY=0.5;entryDx=0;entryDy=0;" edge="1" parent="1" target="46Dm5urxPdZSWB7u-8lu-1">
          <mxGeometry width="50" height="50" relative="1" as="geometry">
            <mxPoint x="250" y="340" as="sourcePoint" />
            <mxPoint x="540" y="440" as="targetPoint" />
          </mxGeometry>
        </mxCell>
        <mxCell id="46Dm5urxPdZSWB7u-8lu-5" value="" style="endArrow=open;dashed=1;html=1;rounded=0;endFill=0;" edge="1" parent="1">
          <mxGeometry width="50" height="50" relative="1" as="geometry">
            <mxPoint x="260" y="360" as="sourcePoint" />
            <mxPoint x="850" y="400" as="targetPoint" />
          </mxGeometry>
        </mxCell>
        <mxCell id="46Dm5urxPdZSWB7u-8lu-18" value="&amp;lt;&amp;lt;include&amp;gt;&amp;gt;" style="edgeLabel;html=1;align=center;verticalAlign=middle;resizable=0;points=[];" vertex="1" connectable="0" parent="46Dm5urxPdZSWB7u-8lu-5">
          <mxGeometry x="0.1678" y="1" relative="1" as="geometry">
            <mxPoint x="1" as="offset" />
          </mxGeometry>
        </mxCell>
        <mxCell id="46Dm5urxPdZSWB7u-8lu-6" value="quên mật khẩu" style="ellipse;whiteSpace=wrap;html=1;" vertex="1" parent="1">
          <mxGeometry x="200" y="150" width="120" height="50" as="geometry" />
        </mxCell>
        <mxCell id="46Dm5urxPdZSWB7u-8lu-7" value="" style="endArrow=none;dashed=1;html=1;rounded=0;endFill=0;entryX=1;entryY=1;entryDx=0;entryDy=0;startArrow=open;startFill=0;" edge="1" parent="1" source="46Dm5urxPdZSWB7u-8lu-1" target="46Dm5urxPdZSWB7u-8lu-6">
          <mxGeometry width="50" height="50" relative="1" as="geometry">
            <mxPoint x="270" y="370" as="sourcePoint" />
            <mxPoint x="860" y="410" as="targetPoint" />
          </mxGeometry>
        </mxCell>
        <mxCell id="46Dm5urxPdZSWB7u-8lu-8" value="&amp;lt;&amp;lt;extend&amp;gt;&amp;gt;" style="edgeLabel;html=1;align=center;verticalAlign=middle;resizable=0;points=[];" vertex="1" connectable="0" parent="46Dm5urxPdZSWB7u-8lu-7">
          <mxGeometry x="0.4247" relative="1" as="geometry">
            <mxPoint as="offset" />
          </mxGeometry>
        </mxCell>
        <mxCell id="46Dm5urxPdZSWB7u-8lu-9" value="" style="endArrow=none;html=1;rounded=0;exitX=0.656;exitY=-0.056;exitDx=0;exitDy=0;exitPerimeter=0;entryX=0.293;entryY=1.026;entryDx=0;entryDy=0;entryPerimeter=0;endFill=0;dashed=1;startArrow=open;startFill=0;" edge="1" parent="1" source="46Dm5urxPdZSWB7u-8lu-1" target="-pCjzga6gceC2OjpBCE2-4">
          <mxGeometry width="50" height="50" relative="1" as="geometry">
            <mxPoint x="490" y="490" as="sourcePoint" />
            <mxPoint x="540" y="440" as="targetPoint" />
          </mxGeometry>
        </mxCell>
        <mxCell id="46Dm5urxPdZSWB7u-8lu-15" value="&amp;lt;&amp;lt;include&amp;gt;&amp;gt;" style="edgeLabel;html=1;align=center;verticalAlign=middle;resizable=0;points=[];" vertex="1" connectable="0" parent="46Dm5urxPdZSWB7u-8lu-9">
          <mxGeometry x="-0.0094" y="-2" relative="1" as="geometry">
            <mxPoint as="offset" />
          </mxGeometry>
        </mxCell>
        <mxCell id="46Dm5urxPdZSWB7u-8lu-10" value="" style="endArrow=none;html=1;rounded=0;exitX=1;exitY=0.5;exitDx=0;exitDy=0;entryX=0;entryY=0.5;entryDx=0;entryDy=0;endFill=0;dashed=1;startArrow=open;startFill=0;" edge="1" parent="1" source="46Dm5urxPdZSWB7u-8lu-1" target="-pCjzga6gceC2OjpBCE2-8">
          <mxGeometry width="50" height="50" relative="1" as="geometry">
            <mxPoint x="490" y="490" as="sourcePoint" />
            <mxPoint x="540" y="440" as="targetPoint" />
          </mxGeometry>
        </mxCell>
        <mxCell id="46Dm5urxPdZSWB7u-8lu-16" value="&amp;lt;&amp;lt;include&amp;gt;&amp;gt;" style="edgeLabel;html=1;align=center;verticalAlign=middle;resizable=0;points=[];" vertex="1" connectable="0" parent="46Dm5urxPdZSWB7u-8lu-10">
          <mxGeometry x="-0.1454" y="-1" relative="1" as="geometry">
            <mxPoint as="offset" />
          </mxGeometry>
        </mxCell>
        <mxCell id="46Dm5urxPdZSWB7u-8lu-11" value="" style="endArrow=none;html=1;rounded=0;exitX=0.979;exitY=0.767;exitDx=0;exitDy=0;exitPerimeter=0;entryX=0;entryY=0.5;entryDx=0;entryDy=0;endFill=0;dashed=1;startArrow=open;startFill=0;" edge="1" parent="1" source="46Dm5urxPdZSWB7u-8lu-1" target="-pCjzga6gceC2OjpBCE2-7">
          <mxGeometry width="50" height="50" relative="1" as="geometry">
            <mxPoint x="490" y="490" as="sourcePoint" />
            <mxPoint x="540" y="440" as="targetPoint" />
          </mxGeometry>
        </mxCell>
        <mxCell id="46Dm5urxPdZSWB7u-8lu-17" value="&amp;lt;&amp;lt;include&amp;gt;&amp;gt;" style="edgeLabel;html=1;align=center;verticalAlign=middle;resizable=0;points=[];" vertex="1" connectable="0" parent="46Dm5urxPdZSWB7u-8lu-11">
          <mxGeometry x="0.0694" y="5" relative="1" as="geometry">
            <mxPoint as="offset" />
          </mxGeometry>
        </mxCell>
        <mxCell id="46Dm5urxPdZSWB7u-8lu-12" value="" style="endArrow=none;html=1;rounded=0;exitX=0.5;exitY=1;exitDx=0;exitDy=0;endFill=0;dashed=1;startArrow=open;startFill=0;" edge="1" parent="1" source="46Dm5urxPdZSWB7u-8lu-1" target="-pCjzga6gceC2OjpBCE2-3">
          <mxGeometry width="50" height="50" relative="1" as="geometry">
            <mxPoint x="490" y="490" as="sourcePoint" />
            <mxPoint x="540" y="440" as="targetPoint" />
          </mxGeometry>
        </mxCell>
        <mxCell id="46Dm5urxPdZSWB7u-8lu-20" value="&amp;lt;&amp;lt;include&amp;gt;&amp;gt;" style="edgeLabel;html=1;align=center;verticalAlign=middle;resizable=0;points=[];" vertex="1" connectable="0" parent="46Dm5urxPdZSWB7u-8lu-12">
          <mxGeometry x="0.2858" y="3" relative="1" as="geometry">
            <mxPoint as="offset" />
          </mxGeometry>
        </mxCell>
        <mxCell id="46Dm5urxPdZSWB7u-8lu-13" value="" style="endArrow=open;html=1;rounded=0;exitX=0.5;exitY=0;exitDx=0;exitDy=0;entryX=0;entryY=1;entryDx=0;entryDy=0;endFill=0;dashed=1;startArrow=none;startFill=0;" edge="1" parent="1" source="-pCjzga6gceC2OjpBCE2-6" target="46Dm5urxPdZSWB7u-8lu-1">
          <mxGeometry width="50" height="50" relative="1" as="geometry">
            <mxPoint x="490" y="490" as="sourcePoint" />
            <mxPoint x="540" y="440" as="targetPoint" />
          </mxGeometry>
        </mxCell>
        <mxCell id="46Dm5urxPdZSWB7u-8lu-21" value="&amp;lt;&amp;lt;include&amp;gt;&amp;gt;" style="edgeLabel;html=1;align=center;verticalAlign=middle;resizable=0;points=[];" vertex="1" connectable="0" parent="46Dm5urxPdZSWB7u-8lu-13">
          <mxGeometry x="-0.0297" relative="1" as="geometry">
            <mxPoint as="offset" />
          </mxGeometry>
        </mxCell>
        <mxCell id="46Dm5urxPdZSWB7u-8lu-14" value="" style="endArrow=open;html=1;rounded=0;entryX=1;entryY=1;entryDx=0;entryDy=0;exitX=0.411;exitY=0.061;exitDx=0;exitDy=0;exitPerimeter=0;endFill=0;dashed=1;startArrow=none;startFill=0;" edge="1" parent="1" source="-pCjzga6gceC2OjpBCE2-5" target="46Dm5urxPdZSWB7u-8lu-1">
          <mxGeometry width="50" height="50" relative="1" as="geometry">
            <mxPoint x="490" y="490" as="sourcePoint" />
            <mxPoint x="540" y="440" as="targetPoint" />
          </mxGeometry>
        </mxCell>
        <mxCell id="46Dm5urxPdZSWB7u-8lu-19" value="&amp;lt;&amp;lt;include&amp;gt;&amp;gt;" style="edgeLabel;html=1;align=center;verticalAlign=middle;resizable=0;points=[];" vertex="1" connectable="0" parent="46Dm5urxPdZSWB7u-8lu-14">
          <mxGeometry x="-0.2732" y="-2" relative="1" as="geometry">
            <mxPoint x="-1" as="offset" />
          </mxGeometry>
        </mxCell>
        <mxCell id="ZnC2k-dnOfTeuohm9oOU-1" value="in giấy kiểm định" style="ellipse;whiteSpace=wrap;html=1;" vertex="1" parent="1">
          <mxGeometry x="800" y="250" width="120" height="50" as="geometry" />
        </mxCell>
        <mxCell id="ZnC2k-dnOfTeuohm9oOU-2" value="" style="endArrow=none;dashed=1;html=1;rounded=0;endFill=0;entryX=0;entryY=0.5;entryDx=0;entryDy=0;startArrow=open;startFill=0;exitX=0.93;exitY=0.355;exitDx=0;exitDy=0;exitPerimeter=0;" edge="1" parent="1" source="-pCjzga6gceC2OjpBCE2-7" target="ZnC2k-dnOfTeuohm9oOU-1">
          <mxGeometry width="50" height="50" relative="1" as="geometry">
            <mxPoint x="807" y="368" as="sourcePoint" />
            <mxPoint x="730" y="280" as="targetPoint" />
          </mxGeometry>
        </mxCell>
        <mxCell id="ZnC2k-dnOfTeuohm9oOU-3" value="&amp;lt;&amp;lt;extend&amp;gt;&amp;gt;" style="edgeLabel;html=1;align=center;verticalAlign=middle;resizable=0;points=[];" vertex="1" connectable="0" parent="ZnC2k-dnOfTeuohm9oOU-2">
          <mxGeometry x="0.4247" relative="1" as="geometry">
            <mxPoint as="offset" />
          </mxGeometry>
        </mxCell>
        <mxCell id="ZnC2k-dnOfTeuohm9oOU-6" value="cấp quyền cho người dùng" style="ellipse;whiteSpace=wrap;html=1;" vertex="1" parent="1">
          <mxGeometry x="860" y="480" width="120" height="50" as="geometry" />
        </mxCell>
        <mxCell id="ZnC2k-dnOfTeuohm9oOU-7" value="cấp quyền cho nhân viên&amp;nbsp;" style="ellipse;whiteSpace=wrap;html=1;" vertex="1" parent="1">
          <mxGeometry x="770" y="585" width="120" height="50" as="geometry" />
        </mxCell>
        <mxCell id="ZnC2k-dnOfTeuohm9oOU-8" value="kiểm tra cập nhật hệ thống" style="ellipse;whiteSpace=wrap;html=1;" vertex="1" parent="1">
          <mxGeometry x="420" y="600" width="120" height="50" as="geometry" />
        </mxCell>
        <mxCell id="ZnC2k-dnOfTeuohm9oOU-10" value="" style="endArrow=none;dashed=1;html=1;rounded=0;endFill=0;entryX=0;entryY=0.5;entryDx=0;entryDy=0;startArrow=open;startFill=0;exitX=1;exitY=0.5;exitDx=0;exitDy=0;" edge="1" parent="1" source="-pCjzga6gceC2OjpBCE2-5" target="ZnC2k-dnOfTeuohm9oOU-6">
          <mxGeometry width="50" height="50" relative="1" as="geometry">
            <mxPoint x="742" y="338" as="sourcePoint" />
            <mxPoint x="810" y="285" as="targetPoint" />
          </mxGeometry>
        </mxCell>
        <mxCell id="ZnC2k-dnOfTeuohm9oOU-11" value="&amp;lt;&amp;lt;extend&amp;gt;&amp;gt;" style="edgeLabel;html=1;align=center;verticalAlign=middle;resizable=0;points=[];" vertex="1" connectable="0" parent="ZnC2k-dnOfTeuohm9oOU-10">
          <mxGeometry x="0.4247" relative="1" as="geometry">
            <mxPoint as="offset" />
          </mxGeometry>
        </mxCell>
        <mxCell id="ZnC2k-dnOfTeuohm9oOU-12" value="" style="endArrow=none;dashed=1;html=1;rounded=0;endFill=0;entryX=0.367;entryY=0.055;entryDx=0;entryDy=0;startArrow=open;startFill=0;exitX=1;exitY=1;exitDx=0;exitDy=0;entryPerimeter=0;" edge="1" parent="1" source="-pCjzga6gceC2OjpBCE2-5" target="ZnC2k-dnOfTeuohm9oOU-7">
          <mxGeometry width="50" height="50" relative="1" as="geometry">
            <mxPoint x="780" y="515" as="sourcePoint" />
            <mxPoint x="870" y="515" as="targetPoint" />
          </mxGeometry>
        </mxCell>
        <mxCell id="ZnC2k-dnOfTeuohm9oOU-13" value="&amp;lt;&amp;lt;extend&amp;gt;&amp;gt;" style="edgeLabel;html=1;align=center;verticalAlign=middle;resizable=0;points=[];" vertex="1" connectable="0" parent="ZnC2k-dnOfTeuohm9oOU-12">
          <mxGeometry x="0.4247" relative="1" as="geometry">
            <mxPoint as="offset" />
          </mxGeometry>
        </mxCell>
        <mxCell id="ZnC2k-dnOfTeuohm9oOU-14" value="" style="endArrow=none;dashed=1;html=1;rounded=0;endFill=0;entryX=0.259;entryY=0.049;entryDx=0;entryDy=0;startArrow=open;startFill=0;exitX=0.994;exitY=0.767;exitDx=0;exitDy=0;exitPerimeter=0;entryPerimeter=0;" edge="1" parent="1" source="-pCjzga6gceC2OjpBCE2-6" target="ZnC2k-dnOfTeuohm9oOU-8">
          <mxGeometry width="50" height="50" relative="1" as="geometry">
            <mxPoint x="790" y="525" as="sourcePoint" />
            <mxPoint x="880" y="525" as="targetPoint" />
          </mxGeometry>
        </mxCell>
        <mxCell id="ZnC2k-dnOfTeuohm9oOU-15" value="&amp;lt;&amp;lt;extend&amp;gt;&amp;gt;" style="edgeLabel;html=1;align=center;verticalAlign=middle;resizable=0;points=[];" vertex="1" connectable="0" parent="ZnC2k-dnOfTeuohm9oOU-14">
          <mxGeometry x="0.4247" relative="1" as="geometry">
            <mxPoint as="offset" />
          </mxGeometry>
        </mxCell>
      </root>
    </mxGraphModel>
  </diagram>
  <diagram id="jqLmS2hWGkZ-NaveV9-r" name="Trang-3">
    <mxGraphModel dx="895" dy="578" grid="1" gridSize="10" guides="1" tooltips="1" connect="1" arrows="1" fold="1" page="1" pageScale="1" pageWidth="827" pageHeight="1169" math="0" shadow="0">
      <root>
        <mxCell id="0" />
        <mxCell id="1" parent="0" />
        <mxCell id="fBB-QxL3M6ERUDiK8IjW-1" value="nhân viên kiểm định" style="shape=umlActor;verticalLabelPosition=bottom;verticalAlign=top;html=1;outlineConnect=0;" vertex="1" parent="1">
          <mxGeometry x="160" y="413" width="30" height="60" as="geometry" />
        </mxCell>
        <mxCell id="fBB-QxL3M6ERUDiK8IjW-2" value="nhân viên tư vấn" style="shape=umlActor;verticalLabelPosition=bottom;verticalAlign=top;html=1;outlineConnect=0;" vertex="1" parent="1">
          <mxGeometry x="160" y="200" width="30" height="60" as="geometry" />
        </mxCell>
        <mxCell id="fBB-QxL3M6ERUDiK8IjW-3" value="đăng nhập&amp;nbsp;" style="ellipse;whiteSpace=wrap;html=1;" vertex="1" parent="1">
          <mxGeometry x="260" y="220" width="120" height="40" as="geometry" />
        </mxCell>
        <mxCell id="naKwqV6ZrmqUestOjbEa-4" value="tư vấn khách hàng" style="ellipse;whiteSpace=wrap;html=1;" vertex="1" parent="1">
          <mxGeometry x="470" y="220" width="120" height="40" as="geometry" />
        </mxCell>
        <mxCell id="wD1XdZu0a5DjzXOA1bBP-1" value="" style="endArrow=none;html=1;rounded=0;exitX=0;exitY=0.5;exitDx=0;exitDy=0;" edge="1" parent="1" source="fBB-QxL3M6ERUDiK8IjW-3">
          <mxGeometry width="50" height="50" relative="1" as="geometry">
            <mxPoint x="130" y="310" as="sourcePoint" />
            <mxPoint x="180" y="240" as="targetPoint" />
          </mxGeometry>
        </mxCell>
        <mxCell id="wD1XdZu0a5DjzXOA1bBP-3" value="" style="endArrow=open;dashed=1;html=1;rounded=0;endFill=0;exitX=0;exitY=0.5;exitDx=0;exitDy=0;entryX=1;entryY=0.5;entryDx=0;entryDy=0;" edge="1" parent="1" source="naKwqV6ZrmqUestOjbEa-4" target="fBB-QxL3M6ERUDiK8IjW-3">
          <mxGeometry width="50" height="50" relative="1" as="geometry">
            <mxPoint x="340" y="310" as="sourcePoint" />
            <mxPoint x="390" y="260" as="targetPoint" />
          </mxGeometry>
        </mxCell>
        <mxCell id="wD1XdZu0a5DjzXOA1bBP-4" value="&amp;lt;&amp;lt;include&amp;gt;&amp;gt;" style="edgeLabel;html=1;align=center;verticalAlign=middle;resizable=0;points=[];" vertex="1" connectable="0" parent="wD1XdZu0a5DjzXOA1bBP-3">
          <mxGeometry x="-0.1587" y="3" relative="1" as="geometry">
            <mxPoint as="offset" />
          </mxGeometry>
        </mxCell>
        <mxCell id="wD1XdZu0a5DjzXOA1bBP-5" value="nhận yêu cầu" style="ellipse;whiteSpace=wrap;html=1;" vertex="1" parent="1">
          <mxGeometry x="650" y="150" width="120" height="40" as="geometry" />
        </mxCell>
        <mxCell id="wD1XdZu0a5DjzXOA1bBP-6" value="liên hệ khách hàng" style="ellipse;whiteSpace=wrap;html=1;" vertex="1" parent="1">
          <mxGeometry x="660" y="270" width="120" height="40" as="geometry" />
        </mxCell>
        <mxCell id="iYnsKbGVpQRQ3go-9dAV-2" value="" style="endArrow=open;dashed=1;html=1;rounded=0;endFill=0;exitX=0.026;exitY=0.729;exitDx=0;exitDy=0;entryX=0.978;entryY=0.336;entryDx=0;entryDy=0;exitPerimeter=0;entryPerimeter=0;" edge="1" parent="1" source="wD1XdZu0a5DjzXOA1bBP-5" target="naKwqV6ZrmqUestOjbEa-4">
          <mxGeometry width="50" height="50" relative="1" as="geometry">
            <mxPoint x="480" y="280" as="sourcePoint" />
            <mxPoint x="390" y="280" as="targetPoint" />
          </mxGeometry>
        </mxCell>
        <mxCell id="iYnsKbGVpQRQ3go-9dAV-3" value="&amp;lt;&amp;lt;extend&amp;gt;&amp;gt;" style="edgeLabel;html=1;align=center;verticalAlign=middle;resizable=0;points=[];" vertex="1" connectable="0" parent="iYnsKbGVpQRQ3go-9dAV-2">
          <mxGeometry x="-0.1587" y="3" relative="1" as="geometry">
            <mxPoint as="offset" />
          </mxGeometry>
        </mxCell>
        <mxCell id="iYnsKbGVpQRQ3go-9dAV-4" value="" style="endArrow=open;dashed=1;html=1;rounded=0;endFill=0;exitX=0.093;exitY=0.169;exitDx=0;exitDy=0;entryX=0.978;entryY=0.336;entryDx=0;entryDy=0;exitPerimeter=0;entryPerimeter=0;" edge="1" parent="1" source="wD1XdZu0a5DjzXOA1bBP-6">
          <mxGeometry width="50" height="50" relative="1" as="geometry">
            <mxPoint x="663" y="189" as="sourcePoint" />
            <mxPoint x="597" y="243" as="targetPoint" />
          </mxGeometry>
        </mxCell>
        <mxCell id="iYnsKbGVpQRQ3go-9dAV-5" value="&amp;lt;&amp;lt;extend&amp;gt;&amp;gt;" style="edgeLabel;html=1;align=center;verticalAlign=middle;resizable=0;points=[];" vertex="1" connectable="0" parent="iYnsKbGVpQRQ3go-9dAV-4">
          <mxGeometry x="-0.1587" y="3" relative="1" as="geometry">
            <mxPoint as="offset" />
          </mxGeometry>
        </mxCell>
        <mxCell id="iYnsKbGVpQRQ3go-9dAV-8" value="đăng nhập&amp;nbsp;" style="ellipse;whiteSpace=wrap;html=1;" vertex="1" parent="1">
          <mxGeometry x="280" y="423" width="120" height="40" as="geometry" />
        </mxCell>
        <mxCell id="PVVeax_gNElqlUOH27HZ-1" value="Thực hiện đánh giá" style="ellipse;whiteSpace=wrap;html=1;" vertex="1" parent="1">
          <mxGeometry x="480" y="423" width="120" height="40" as="geometry" />
        </mxCell>
        <mxCell id="PVVeax_gNElqlUOH27HZ-2" value="" style="endArrow=none;html=1;rounded=0;entryX=0;entryY=0.5;entryDx=0;entryDy=0;" edge="1" parent="1" target="iYnsKbGVpQRQ3go-9dAV-8">
          <mxGeometry width="50" height="50" relative="1" as="geometry">
            <mxPoint x="200" y="443" as="sourcePoint" />
            <mxPoint x="470" y="233" as="targetPoint" />
          </mxGeometry>
        </mxCell>
        <mxCell id="PVVeax_gNElqlUOH27HZ-3" value="" style="endArrow=open;dashed=1;html=1;rounded=0;endFill=0;exitX=0;exitY=0.5;exitDx=0;exitDy=0;entryX=1;entryY=0.5;entryDx=0;entryDy=0;" edge="1" parent="1" source="PVVeax_gNElqlUOH27HZ-1" target="iYnsKbGVpQRQ3go-9dAV-8">
          <mxGeometry width="50" height="50" relative="1" as="geometry">
            <mxPoint x="480" y="13" as="sourcePoint" />
            <mxPoint x="390" y="13" as="targetPoint" />
          </mxGeometry>
        </mxCell>
        <mxCell id="PVVeax_gNElqlUOH27HZ-4" value="&amp;lt;&amp;lt;include&amp;gt;&amp;gt;" style="edgeLabel;html=1;align=center;verticalAlign=middle;resizable=0;points=[];" vertex="1" connectable="0" parent="PVVeax_gNElqlUOH27HZ-3">
          <mxGeometry x="-0.1587" y="3" relative="1" as="geometry">
            <mxPoint as="offset" />
          </mxGeometry>
        </mxCell>
        <mxCell id="PVVeax_gNElqlUOH27HZ-5" value="nhận yêu cầu" style="ellipse;whiteSpace=wrap;html=1;" vertex="1" parent="1">
          <mxGeometry x="643" y="340" width="120" height="40" as="geometry" />
        </mxCell>
        <mxCell id="PVVeax_gNElqlUOH27HZ-6" value="" style="endArrow=open;dashed=1;html=1;rounded=0;endFill=0;exitX=0.026;exitY=0.729;exitDx=0;exitDy=0;entryX=0.978;entryY=0.336;entryDx=0;entryDy=0;exitPerimeter=0;entryPerimeter=0;" edge="1" parent="1" source="PVVeax_gNElqlUOH27HZ-5">
          <mxGeometry width="50" height="50" relative="1" as="geometry">
            <mxPoint x="473" y="470" as="sourcePoint" />
            <mxPoint x="580" y="423" as="targetPoint" />
          </mxGeometry>
        </mxCell>
        <mxCell id="PVVeax_gNElqlUOH27HZ-7" value="&amp;lt;&amp;lt;extend&amp;gt;&amp;gt;" style="edgeLabel;html=1;align=center;verticalAlign=middle;resizable=0;points=[];" vertex="1" connectable="0" parent="PVVeax_gNElqlUOH27HZ-6">
          <mxGeometry x="-0.1587" y="3" relative="1" as="geometry">
            <mxPoint as="offset" />
          </mxGeometry>
        </mxCell>
      </root>
    </mxGraphModel>
  </diagram>
  <diagram id="3F8SOKFA-8jdi8-ZF66x" name="Trang-4">
    <mxGraphModel dx="1446" dy="934" grid="1" gridSize="10" guides="1" tooltips="1" connect="1" arrows="1" fold="1" page="1" pageScale="1" pageWidth="827" pageHeight="1169" math="0" shadow="0">
      <root>
        <mxCell id="0" />
        <mxCell id="1" parent="0" />
        <mxCell id="vBpY-FxGagG8ZNEn1dQ0-1" value="kiểm định&amp;nbsp;" style="swimlane;childLayout=stackLayout;resizeParent=1;resizeParentMax=0;startSize=20;html=1;" vertex="1" parent="1">
          <mxGeometry x="130" y="60" width="520" height="840" as="geometry" />
        </mxCell>
        <mxCell id="vBpY-FxGagG8ZNEn1dQ0-2" value="người dùng" style="swimlane;startSize=20;html=1;" vertex="1" parent="vBpY-FxGagG8ZNEn1dQ0-1">
          <mxGeometry y="20" width="250" height="820" as="geometry" />
        </mxCell>
        <mxCell id="vBpY-FxGagG8ZNEn1dQ0-59" style="edgeStyle=orthogonalEdgeStyle;rounded=0;orthogonalLoop=1;jettySize=auto;html=1;exitX=0;exitY=1;exitDx=0;exitDy=0;entryX=0.5;entryY=0;entryDx=0;entryDy=0;" edge="1" parent="vBpY-FxGagG8ZNEn1dQ0-2" source="vBpY-FxGagG8ZNEn1dQ0-5" target="vBpY-FxGagG8ZNEn1dQ0-7">
          <mxGeometry relative="1" as="geometry" />
        </mxCell>
        <mxCell id="vBpY-FxGagG8ZNEn1dQ0-5" value="" style="ellipse;html=1;shape=startState;fillColor=#000000;strokeColor=#33001A;" vertex="1" parent="vBpY-FxGagG8ZNEn1dQ0-2">
          <mxGeometry x="99.99999999999955" y="40" width="30" height="30" as="geometry" />
        </mxCell>
        <mxCell id="vBpY-FxGagG8ZNEn1dQ0-7" value="gửi yêu cầu" style="rounded=1;whiteSpace=wrap;html=1;arcSize=40;fontColor=#000000;fillColor=#FFFFFF;strokeColor=#33001A;" vertex="1" parent="vBpY-FxGagG8ZNEn1dQ0-2">
          <mxGeometry x="60" y="100" width="110" height="30" as="geometry" />
        </mxCell>
        <mxCell id="vBpY-FxGagG8ZNEn1dQ0-36" style="edgeStyle=orthogonalEdgeStyle;rounded=0;orthogonalLoop=1;jettySize=auto;html=1;exitX=0.5;exitY=1;exitDx=0;exitDy=0;entryX=0.5;entryY=0;entryDx=0;entryDy=0;" edge="1" parent="vBpY-FxGagG8ZNEn1dQ0-2" source="vBpY-FxGagG8ZNEn1dQ0-15" target="vBpY-FxGagG8ZNEn1dQ0-18">
          <mxGeometry relative="1" as="geometry" />
        </mxCell>
        <mxCell id="vBpY-FxGagG8ZNEn1dQ0-15" value="điền thông tin" style="rounded=1;whiteSpace=wrap;html=1;arcSize=40;fontColor=#000000;fillColor=#FFFFFF;strokeColor=#33001A;" vertex="1" parent="vBpY-FxGagG8ZNEn1dQ0-2">
          <mxGeometry x="60" y="220" width="110" height="30" as="geometry" />
        </mxCell>
        <mxCell id="vBpY-FxGagG8ZNEn1dQ0-33" style="edgeStyle=orthogonalEdgeStyle;rounded=0;orthogonalLoop=1;jettySize=auto;html=1;exitX=1;exitY=0.5;exitDx=0;exitDy=0;" edge="1" parent="vBpY-FxGagG8ZNEn1dQ0-2" source="vBpY-FxGagG8ZNEn1dQ0-18">
          <mxGeometry relative="1" as="geometry">
            <mxPoint x="340" y="325" as="targetPoint" />
          </mxGeometry>
        </mxCell>
        <mxCell id="vBpY-FxGagG8ZNEn1dQ0-37" style="edgeStyle=orthogonalEdgeStyle;rounded=0;orthogonalLoop=1;jettySize=auto;html=1;exitX=0.5;exitY=1;exitDx=0;exitDy=0;" edge="1" parent="vBpY-FxGagG8ZNEn1dQ0-2" source="vBpY-FxGagG8ZNEn1dQ0-18">
          <mxGeometry relative="1" as="geometry">
            <mxPoint x="340" y="680" as="targetPoint" />
            <Array as="points">
              <mxPoint x="115" y="680" />
            </Array>
          </mxGeometry>
        </mxCell>
        <mxCell id="vBpY-FxGagG8ZNEn1dQ0-18" value="" style="rhombus;whiteSpace=wrap;html=1;fontColor=#000000;fillColor=#FFFFFF;strokeColor=#0d0c0c;" vertex="1" parent="vBpY-FxGagG8ZNEn1dQ0-2">
          <mxGeometry x="75" y="300" width="80" height="50" as="geometry" />
        </mxCell>
        <mxCell id="vBpY-FxGagG8ZNEn1dQ0-3" value="hệ thống" style="swimlane;startSize=20;html=1;" vertex="1" parent="vBpY-FxGagG8ZNEn1dQ0-1">
          <mxGeometry x="250" y="20" width="270" height="820" as="geometry" />
        </mxCell>
        <mxCell id="vBpY-FxGagG8ZNEn1dQ0-10" value="hiển thị from kiểm định" style="rounded=1;whiteSpace=wrap;html=1;arcSize=40;fontColor=#000000;fillColor=#FFFFFF;strokeColor=#33001A;" vertex="1" parent="vBpY-FxGagG8ZNEn1dQ0-3">
          <mxGeometry x="80" y="150" width="110" height="30" as="geometry" />
        </mxCell>
        <mxCell id="vBpY-FxGagG8ZNEn1dQ0-38" style="edgeStyle=orthogonalEdgeStyle;rounded=0;orthogonalLoop=1;jettySize=auto;html=1;exitX=0.5;exitY=1;exitDx=0;exitDy=0;" edge="1" parent="vBpY-FxGagG8ZNEn1dQ0-3" source="vBpY-FxGagG8ZNEn1dQ0-25">
          <mxGeometry relative="1" as="geometry">
            <mxPoint x="135" y="410" as="targetPoint" />
          </mxGeometry>
        </mxCell>
        <mxCell id="vBpY-FxGagG8ZNEn1dQ0-44" style="edgeStyle=orthogonalEdgeStyle;rounded=0;orthogonalLoop=1;jettySize=auto;html=1;exitX=1;exitY=0.5;exitDx=0;exitDy=0;entryX=0.564;entryY=1.067;entryDx=0;entryDy=0;entryPerimeter=0;" edge="1" parent="vBpY-FxGagG8ZNEn1dQ0-3" source="vBpY-FxGagG8ZNEn1dQ0-25" target="vBpY-FxGagG8ZNEn1dQ0-43">
          <mxGeometry relative="1" as="geometry">
            <mxPoint x="210" y="300" as="targetPoint" />
          </mxGeometry>
        </mxCell>
        <mxCell id="vBpY-FxGagG8ZNEn1dQ0-25" value="" style="rhombus;whiteSpace=wrap;html=1;fontColor=#000000;fillColor=#FFFFFF;strokeColor=#0d0c0c;" vertex="1" parent="vBpY-FxGagG8ZNEn1dQ0-3">
          <mxGeometry x="95" y="300" width="80" height="50" as="geometry" />
        </mxCell>
        <mxCell id="vBpY-FxGagG8ZNEn1dQ0-45" style="edgeStyle=orthogonalEdgeStyle;rounded=0;orthogonalLoop=1;jettySize=auto;html=1;exitX=0.5;exitY=0;exitDx=0;exitDy=0;entryX=1;entryY=0.5;entryDx=0;entryDy=0;" edge="1" parent="vBpY-FxGagG8ZNEn1dQ0-3" source="vBpY-FxGagG8ZNEn1dQ0-43" target="vBpY-FxGagG8ZNEn1dQ0-10">
          <mxGeometry relative="1" as="geometry">
            <mxPoint x="195" y="180" as="targetPoint" />
            <Array as="points">
              <mxPoint x="215" y="165" />
            </Array>
          </mxGeometry>
        </mxCell>
        <mxCell id="vBpY-FxGagG8ZNEn1dQ0-43" value="thông báo lỗi" style="rounded=1;whiteSpace=wrap;html=1;arcSize=40;fontColor=#000000;fillColor=#FFFFFF;strokeColor=#33001A;" vertex="1" parent="vBpY-FxGagG8ZNEn1dQ0-3">
          <mxGeometry x="160" y="240" width="110" height="30" as="geometry" />
        </mxCell>
        <mxCell id="vBpY-FxGagG8ZNEn1dQ0-46" value="false" style="text;html=1;align=center;verticalAlign=middle;resizable=0;points=[];autosize=1;strokeColor=none;fillColor=none;" vertex="1" parent="vBpY-FxGagG8ZNEn1dQ0-3">
          <mxGeometry x="170" y="300" width="50" height="30" as="geometry" />
        </mxCell>
        <mxCell id="vBpY-FxGagG8ZNEn1dQ0-47" value="kiểm tra" style="text;html=1;align=center;verticalAlign=middle;resizable=0;points=[];autosize=1;strokeColor=none;fillColor=none;" vertex="1" parent="vBpY-FxGagG8ZNEn1dQ0-3">
          <mxGeometry x="34" y="290" width="70" height="30" as="geometry" />
        </mxCell>
        <mxCell id="vBpY-FxGagG8ZNEn1dQ0-52" style="edgeStyle=orthogonalEdgeStyle;rounded=0;orthogonalLoop=1;jettySize=auto;html=1;exitX=0.5;exitY=1;exitDx=0;exitDy=0;entryX=0.5;entryY=0;entryDx=0;entryDy=0;" edge="1" parent="vBpY-FxGagG8ZNEn1dQ0-3" source="vBpY-FxGagG8ZNEn1dQ0-51" target="vBpY-FxGagG8ZNEn1dQ0-53">
          <mxGeometry relative="1" as="geometry">
            <mxPoint x="135" y="590" as="targetPoint" />
          </mxGeometry>
        </mxCell>
        <mxCell id="vBpY-FxGagG8ZNEn1dQ0-51" value="thực hiện kiểm định" style="rounded=1;whiteSpace=wrap;html=1;arcSize=40;fontColor=#000000;fillColor=#FFFFFF;strokeColor=#33001A;" vertex="1" parent="vBpY-FxGagG8ZNEn1dQ0-3">
          <mxGeometry x="80" y="420" width="110" height="30" as="geometry" />
        </mxCell>
        <mxCell id="vBpY-FxGagG8ZNEn1dQ0-56" style="edgeStyle=orthogonalEdgeStyle;rounded=0;orthogonalLoop=1;jettySize=auto;html=1;exitX=0.5;exitY=1;exitDx=0;exitDy=0;" edge="1" parent="vBpY-FxGagG8ZNEn1dQ0-3" source="vBpY-FxGagG8ZNEn1dQ0-53">
          <mxGeometry relative="1" as="geometry">
            <mxPoint x="135" y="650" as="targetPoint" />
          </mxGeometry>
        </mxCell>
        <mxCell id="vBpY-FxGagG8ZNEn1dQ0-53" value="xuất báo cáo" style="rounded=1;whiteSpace=wrap;html=1;arcSize=40;fontColor=#000000;fillColor=#FFFFFF;strokeColor=#33001A;" vertex="1" parent="vBpY-FxGagG8ZNEn1dQ0-3">
          <mxGeometry x="80" y="530" width="110" height="30" as="geometry" />
        </mxCell>
        <mxCell id="vBpY-FxGagG8ZNEn1dQ0-58" style="edgeStyle=orthogonalEdgeStyle;rounded=0;orthogonalLoop=1;jettySize=auto;html=1;exitX=0.5;exitY=1;exitDx=0;exitDy=0;entryX=0.5;entryY=0;entryDx=0;entryDy=0;" edge="1" parent="vBpY-FxGagG8ZNEn1dQ0-3" source="vBpY-FxGagG8ZNEn1dQ0-54" target="vBpY-FxGagG8ZNEn1dQ0-57">
          <mxGeometry relative="1" as="geometry" />
        </mxCell>
        <mxCell id="vBpY-FxGagG8ZNEn1dQ0-54" value="" style="rhombus;whiteSpace=wrap;html=1;fontColor=#000000;fillColor=#FFFFFF;strokeColor=#0d0c0c;" vertex="1" parent="vBpY-FxGagG8ZNEn1dQ0-3">
          <mxGeometry x="95" y="650" width="80" height="50" as="geometry" />
        </mxCell>
        <mxCell id="vBpY-FxGagG8ZNEn1dQ0-57" value="" style="ellipse;html=1;shape=endState;fillColor=#000000;strokeColor=#33001A;" vertex="1" parent="vBpY-FxGagG8ZNEn1dQ0-3">
          <mxGeometry x="120" y="750" width="30" height="30" as="geometry" />
        </mxCell>
        <mxCell id="vBpY-FxGagG8ZNEn1dQ0-34" style="edgeStyle=orthogonalEdgeStyle;rounded=0;orthogonalLoop=1;jettySize=auto;html=1;exitX=0.5;exitY=1;exitDx=0;exitDy=0;entryX=0.5;entryY=0;entryDx=0;entryDy=0;" edge="1" parent="vBpY-FxGagG8ZNEn1dQ0-1" source="vBpY-FxGagG8ZNEn1dQ0-7" target="vBpY-FxGagG8ZNEn1dQ0-10">
          <mxGeometry relative="1" as="geometry">
            <mxPoint x="115" y="170" as="targetPoint" />
            <Array as="points">
              <mxPoint x="115" y="160" />
              <mxPoint x="385" y="160" />
            </Array>
          </mxGeometry>
        </mxCell>
        <mxCell id="vBpY-FxGagG8ZNEn1dQ0-35" style="edgeStyle=orthogonalEdgeStyle;rounded=0;orthogonalLoop=1;jettySize=auto;html=1;exitX=0.5;exitY=1;exitDx=0;exitDy=0;" edge="1" parent="vBpY-FxGagG8ZNEn1dQ0-1" source="vBpY-FxGagG8ZNEn1dQ0-10" target="vBpY-FxGagG8ZNEn1dQ0-15">
          <mxGeometry relative="1" as="geometry">
            <mxPoint x="110" y="220" as="targetPoint" />
            <Array as="points">
              <mxPoint x="385" y="220" />
              <mxPoint x="115" y="220" />
            </Array>
          </mxGeometry>
        </mxCell>
        <mxCell id="vBpY-FxGagG8ZNEn1dQ0-48" value="true" style="text;html=1;align=center;verticalAlign=middle;resizable=0;points=[];autosize=1;strokeColor=none;fillColor=none;" vertex="1" parent="1">
          <mxGeometry x="510" y="428" width="40" height="30" as="geometry" />
        </mxCell>
        <mxCell id="vBpY-FxGagG8ZNEn1dQ0-49" value="xác nhận" style="text;html=1;align=center;verticalAlign=middle;resizable=0;points=[];autosize=1;strokeColor=none;fillColor=none;" vertex="1" parent="1">
          <mxGeometry x="275" y="378" width="70" height="30" as="geometry" />
        </mxCell>
        <mxCell id="vBpY-FxGagG8ZNEn1dQ0-50" value="hủy" style="text;html=1;align=center;verticalAlign=middle;resizable=0;points=[];autosize=1;strokeColor=none;fillColor=none;" vertex="1" parent="1">
          <mxGeometry x="200" y="438" width="40" height="30" as="geometry" />
        </mxCell>
      </root>
    </mxGraphModel>
  </diagram>
</mxfile>
